<mxfile host="app.diagrams.net" modified="2023-06-12T20:06:25.895Z" agent="Mozilla/5.0 (Windows NT 10.0; Win64; x64) AppleWebKit/537.36 (KHTML, like Gecko) Chrome/114.0.0.0 Safari/537.36 Edg/114.0.1823.43" etag="zjYugiATzL-Xx7wkZugH" version="21.3.7" type="device">
  <diagram name="Page-1" id="UgGzfP515cYL5CGUstF1">
    <mxGraphModel dx="985" dy="597" grid="1" gridSize="10" guides="1" tooltips="1" connect="1" arrows="1" fold="1" page="1" pageScale="1" pageWidth="850" pageHeight="1100" math="0" shadow="0">
      <root>
        <mxCell id="0" />
        <mxCell id="1" parent="0" />
        <mxCell id="OJCkGKqyERTF3BA-xQT1-1" value="&lt;font color=&quot;#1a1a1a&quot; face=&quot;Verdana&quot; size=&quot;1&quot; style=&quot;&quot;&gt;&lt;b style=&quot;font-size: 30px;&quot;&gt;CPU0&lt;/b&gt;&lt;/font&gt;" style="rounded=1;whiteSpace=wrap;html=1;fillColor=#d5e8d4;strokeColor=#82b366;" parent="1" vertex="1">
          <mxGeometry x="70" y="245" width="120" height="110" as="geometry" />
        </mxCell>
        <mxCell id="QfmeFdrnoK_TiQ0agFlV-17" value="&lt;font color=&quot;#1a1a1a&quot; face=&quot;Verdana&quot; size=&quot;1&quot; style=&quot;&quot;&gt;&lt;b style=&quot;font-size: 30px;&quot;&gt;CPU0&lt;/b&gt;&lt;/font&gt;" style="rounded=1;whiteSpace=wrap;html=1;fillColor=#d5e8d4;strokeColor=#82b366;" parent="1" vertex="1">
          <mxGeometry x="70" y="390" width="120" height="110" as="geometry" />
        </mxCell>
        <mxCell id="QfmeFdrnoK_TiQ0agFlV-22" value="" style="group" parent="1" vertex="1" connectable="0">
          <mxGeometry x="210" y="270" width="530" height="60" as="geometry" />
        </mxCell>
        <mxCell id="OJCkGKqyERTF3BA-xQT1-2" value="DoWork(0)" style="rounded=0;whiteSpace=wrap;html=1;fillColor=#fff2cc;strokeColor=#d6b656;" parent="QfmeFdrnoK_TiQ0agFlV-22" vertex="1">
          <mxGeometry width="132.5" height="60" as="geometry" />
        </mxCell>
        <mxCell id="QfmeFdrnoK_TiQ0agFlV-1" value="DoWork(1)" style="rounded=0;whiteSpace=wrap;html=1;fillColor=#dae8fc;strokeColor=#6c8ebf;" parent="QfmeFdrnoK_TiQ0agFlV-22" vertex="1">
          <mxGeometry x="132.5" width="132.5" height="60" as="geometry" />
        </mxCell>
        <mxCell id="QfmeFdrnoK_TiQ0agFlV-2" value="DoWork(2)" style="rounded=0;whiteSpace=wrap;html=1;fillColor=#e1d5e7;strokeColor=#9673a6;" parent="QfmeFdrnoK_TiQ0agFlV-22" vertex="1">
          <mxGeometry x="265" width="132.5" height="60" as="geometry" />
        </mxCell>
        <mxCell id="QfmeFdrnoK_TiQ0agFlV-3" value="DoWork(3)" style="rounded=0;whiteSpace=wrap;html=1;fillColor=#ffe6cc;strokeColor=#d79b00;" parent="QfmeFdrnoK_TiQ0agFlV-22" vertex="1">
          <mxGeometry x="397.5" width="132.5" height="60" as="geometry" />
        </mxCell>
        <mxCell id="QfmeFdrnoK_TiQ0agFlV-30" value="1" style="rounded=0;whiteSpace=wrap;html=1;fillColor=#dae8fc;strokeColor=#6c8ebf;" parent="1" vertex="1">
          <mxGeometry x="342" y="420" width="32.5" height="50" as="geometry" />
        </mxCell>
        <mxCell id="QfmeFdrnoK_TiQ0agFlV-31" value="2" style="rounded=0;whiteSpace=wrap;html=1;fillColor=#e1d5e7;strokeColor=#9673a6;" parent="1" vertex="1">
          <mxGeometry x="375" y="420" width="32.5" height="50" as="geometry" />
        </mxCell>
        <mxCell id="QfmeFdrnoK_TiQ0agFlV-32" value="3" style="rounded=0;whiteSpace=wrap;html=1;fillColor=#ffe6cc;strokeColor=#d79b00;" parent="1" vertex="1">
          <mxGeometry x="408" y="420" width="32.5" height="50" as="geometry" />
        </mxCell>
        <mxCell id="QfmeFdrnoK_TiQ0agFlV-33" value="0" style="rounded=0;whiteSpace=wrap;html=1;fillColor=#fff2cc;strokeColor=#d6b656;" parent="1" vertex="1">
          <mxGeometry x="441" y="420" width="32.5" height="50" as="geometry" />
        </mxCell>
        <mxCell id="QfmeFdrnoK_TiQ0agFlV-18" value="0" style="rounded=0;whiteSpace=wrap;html=1;fillColor=#fff2cc;strokeColor=#d6b656;" parent="1" vertex="1">
          <mxGeometry x="210" y="420" width="32.5" height="50" as="geometry" />
        </mxCell>
        <mxCell id="QfmeFdrnoK_TiQ0agFlV-25" value="2" style="rounded=0;whiteSpace=wrap;html=1;fillColor=#e1d5e7;strokeColor=#9673a6;" parent="1" vertex="1">
          <mxGeometry x="243" y="420" width="32.5" height="50" as="geometry" />
        </mxCell>
        <mxCell id="QfmeFdrnoK_TiQ0agFlV-26" value="1" style="rounded=0;whiteSpace=wrap;html=1;fillColor=#dae8fc;strokeColor=#6c8ebf;" parent="1" vertex="1">
          <mxGeometry x="276" y="420" width="32.5" height="50" as="geometry" />
        </mxCell>
        <mxCell id="QfmeFdrnoK_TiQ0agFlV-27" value="3" style="rounded=0;whiteSpace=wrap;html=1;fillColor=#ffe6cc;strokeColor=#d79b00;" parent="1" vertex="1">
          <mxGeometry x="309" y="420" width="32.5" height="50" as="geometry" />
        </mxCell>
        <mxCell id="QfmeFdrnoK_TiQ0agFlV-34" value="2" style="rounded=0;whiteSpace=wrap;html=1;fillColor=#e1d5e7;strokeColor=#9673a6;" parent="1" vertex="1">
          <mxGeometry x="606" y="420" width="32.5" height="50" as="geometry" />
        </mxCell>
        <mxCell id="QfmeFdrnoK_TiQ0agFlV-35" value="3" style="rounded=0;whiteSpace=wrap;html=1;fillColor=#ffe6cc;strokeColor=#d79b00;" parent="1" vertex="1">
          <mxGeometry x="639" y="420" width="32.5" height="50" as="geometry" />
        </mxCell>
        <mxCell id="QfmeFdrnoK_TiQ0agFlV-36" value="0" style="rounded=0;whiteSpace=wrap;html=1;fillColor=#fff2cc;strokeColor=#d6b656;" parent="1" vertex="1">
          <mxGeometry x="672" y="420" width="32.5" height="50" as="geometry" />
        </mxCell>
        <mxCell id="QfmeFdrnoK_TiQ0agFlV-37" value="1" style="rounded=0;whiteSpace=wrap;html=1;fillColor=#dae8fc;strokeColor=#6c8ebf;" parent="1" vertex="1">
          <mxGeometry x="705" y="420" width="32.5" height="50" as="geometry" />
        </mxCell>
        <mxCell id="QfmeFdrnoK_TiQ0agFlV-38" value="1" style="rounded=0;whiteSpace=wrap;html=1;fillColor=#dae8fc;strokeColor=#6c8ebf;" parent="1" vertex="1">
          <mxGeometry x="474" y="420" width="32.5" height="50" as="geometry" />
        </mxCell>
        <mxCell id="QfmeFdrnoK_TiQ0agFlV-39" value="0" style="rounded=0;whiteSpace=wrap;html=1;fillColor=#fff2cc;strokeColor=#d6b656;" parent="1" vertex="1">
          <mxGeometry x="507" y="420" width="32.5" height="50" as="geometry" />
        </mxCell>
        <mxCell id="QfmeFdrnoK_TiQ0agFlV-40" value="2" style="rounded=0;whiteSpace=wrap;html=1;fillColor=#e1d5e7;strokeColor=#9673a6;" parent="1" vertex="1">
          <mxGeometry x="540" y="420" width="32.5" height="50" as="geometry" />
        </mxCell>
        <mxCell id="QfmeFdrnoK_TiQ0agFlV-41" value="3" style="rounded=0;whiteSpace=wrap;html=1;fillColor=#ffe6cc;strokeColor=#d79b00;" parent="1" vertex="1">
          <mxGeometry x="573" y="420" width="32.5" height="50" as="geometry" />
        </mxCell>
        <mxCell id="QfmeFdrnoK_TiQ0agFlV-43" value="&lt;font color=&quot;#1a1a1a&quot; face=&quot;Verdana&quot; size=&quot;1&quot; style=&quot;&quot;&gt;&lt;b style=&quot;font-size: 30px;&quot;&gt;CPU0&lt;/b&gt;&lt;/font&gt;" style="rounded=1;whiteSpace=wrap;html=1;fillColor=#d5e8d4;strokeColor=#82b366;" parent="1" vertex="1">
          <mxGeometry x="70" y="520" width="120" height="60" as="geometry" />
        </mxCell>
        <mxCell id="QfmeFdrnoK_TiQ0agFlV-55" value="&lt;font color=&quot;#1a1a1a&quot; face=&quot;Verdana&quot; size=&quot;1&quot; style=&quot;&quot;&gt;&lt;b style=&quot;font-size: 30px;&quot;&gt;CPU1&lt;/b&gt;&lt;/font&gt;" style="rounded=1;whiteSpace=wrap;html=1;fillColor=#d5e8d4;strokeColor=#82b366;" parent="1" vertex="1">
          <mxGeometry x="70" y="590" width="120" height="60" as="geometry" />
        </mxCell>
        <mxCell id="QfmeFdrnoK_TiQ0agFlV-56" value="&lt;font color=&quot;#1a1a1a&quot; face=&quot;Verdana&quot; size=&quot;1&quot; style=&quot;&quot;&gt;&lt;b style=&quot;font-size: 30px;&quot;&gt;CPU2&lt;/b&gt;&lt;/font&gt;" style="rounded=1;whiteSpace=wrap;html=1;fillColor=#d5e8d4;strokeColor=#82b366;" parent="1" vertex="1">
          <mxGeometry x="70" y="660" width="120" height="60" as="geometry" />
        </mxCell>
        <mxCell id="QfmeFdrnoK_TiQ0agFlV-57" value="&lt;font color=&quot;#1a1a1a&quot; face=&quot;Verdana&quot; size=&quot;1&quot; style=&quot;&quot;&gt;&lt;b style=&quot;font-size: 30px;&quot;&gt;CPU3&lt;/b&gt;&lt;/font&gt;" style="rounded=1;whiteSpace=wrap;html=1;fillColor=#d5e8d4;strokeColor=#82b366;" parent="1" vertex="1">
          <mxGeometry x="70" y="730" width="120" height="60" as="geometry" />
        </mxCell>
        <mxCell id="QfmeFdrnoK_TiQ0agFlV-45" value="DoWork(0)" style="rounded=0;whiteSpace=wrap;html=1;fillColor=#fff2cc;strokeColor=#d6b656;" parent="1" vertex="1">
          <mxGeometry x="210" y="533" width="132.5" height="35" as="geometry" />
        </mxCell>
        <mxCell id="QfmeFdrnoK_TiQ0agFlV-46" value="DoWork(1)" style="rounded=0;whiteSpace=wrap;html=1;fillColor=#dae8fc;strokeColor=#6c8ebf;" parent="1" vertex="1">
          <mxGeometry x="210" y="602.5" width="132.5" height="35" as="geometry" />
        </mxCell>
        <mxCell id="QfmeFdrnoK_TiQ0agFlV-47" value="DoWork(2)" style="rounded=0;whiteSpace=wrap;html=1;fillColor=#e1d5e7;strokeColor=#9673a6;" parent="1" vertex="1">
          <mxGeometry x="210" y="672.5" width="132.5" height="35" as="geometry" />
        </mxCell>
        <mxCell id="QfmeFdrnoK_TiQ0agFlV-48" value="DoWork(3)" style="rounded=0;whiteSpace=wrap;html=1;fillColor=#ffe6cc;strokeColor=#d79b00;" parent="1" vertex="1">
          <mxGeometry x="210" y="742.5" width="132.5" height="35" as="geometry" />
        </mxCell>
        <mxCell id="gXuYD9Qn4Zd9DAcciAM4-21" value="&lt;font color=&quot;#1a1a1a&quot; face=&quot;Verdana&quot; size=&quot;1&quot; style=&quot;&quot;&gt;&lt;b style=&quot;font-size: 30px;&quot;&gt;CPU0&lt;/b&gt;&lt;/font&gt;" style="rounded=1;whiteSpace=wrap;html=1;fillColor=#d5e8d4;strokeColor=#82b366;" vertex="1" parent="1">
          <mxGeometry x="70" y="1020" width="120" height="180" as="geometry" />
        </mxCell>
        <mxCell id="gXuYD9Qn4Zd9DAcciAM4-23" value="" style="rounded=0;whiteSpace=wrap;html=1;fillColor=#fff2cc;strokeColor=#d6b656;" vertex="1" parent="1">
          <mxGeometry x="209" y="1030" width="11" height="35" as="geometry" />
        </mxCell>
        <mxCell id="gXuYD9Qn4Zd9DAcciAM4-24" value="0" style="rounded=0;whiteSpace=wrap;html=1;fillColor=#dae8fc;strokeWidth=1;strokeColor=#6c8ebf;" vertex="1" parent="1">
          <mxGeometry x="220" y="1030" width="20" height="35" as="geometry" />
        </mxCell>
        <mxCell id="gXuYD9Qn4Zd9DAcciAM4-25" value="" style="rounded=0;whiteSpace=wrap;html=1;fillColor=#fff2cc;strokeColor=#d6b656;" vertex="1" parent="1">
          <mxGeometry x="638" y="1030" width="11" height="35" as="geometry" />
        </mxCell>
        <mxCell id="gXuYD9Qn4Zd9DAcciAM4-38" value="0" style="rounded=0;whiteSpace=wrap;html=1;fillColor=#dae8fc;strokeWidth=1;strokeColor=#6c8ebf;" vertex="1" parent="1">
          <mxGeometry x="271" y="1030" width="29" height="35" as="geometry" />
        </mxCell>
        <mxCell id="gXuYD9Qn4Zd9DAcciAM4-39" value="0" style="rounded=0;whiteSpace=wrap;html=1;fillColor=#dae8fc;strokeWidth=1;strokeColor=#6c8ebf;" vertex="1" parent="1">
          <mxGeometry x="485.5" y="1030" width="31" height="35" as="geometry" />
        </mxCell>
        <mxCell id="gXuYD9Qn4Zd9DAcciAM4-42" value="0" style="rounded=0;whiteSpace=wrap;html=1;fillColor=#dae8fc;strokeWidth=1;strokeColor=#6c8ebf;" vertex="1" parent="1">
          <mxGeometry x="612" y="1030" width="26" height="35" as="geometry" />
        </mxCell>
        <mxCell id="gXuYD9Qn4Zd9DAcciAM4-51" value="" style="rounded=0;whiteSpace=wrap;html=1;fillColor=#fff2cc;strokeColor=#d6b656;" vertex="1" parent="1">
          <mxGeometry x="333" y="1110" width="11" height="35" as="geometry" />
        </mxCell>
        <mxCell id="gXuYD9Qn4Zd9DAcciAM4-52" value="2" style="rounded=0;whiteSpace=wrap;html=1;fillColor=#dae8fc;strokeWidth=1;strokeColor=#6c8ebf;" vertex="1" parent="1">
          <mxGeometry x="344" y="1110" width="20" height="35" as="geometry" />
        </mxCell>
        <mxCell id="gXuYD9Qn4Zd9DAcciAM4-53" value="" style="rounded=0;whiteSpace=wrap;html=1;fillColor=#fff2cc;strokeColor=#d6b656;" vertex="1" parent="1">
          <mxGeometry x="737" y="1110" width="11" height="35" as="geometry" />
        </mxCell>
        <mxCell id="gXuYD9Qn4Zd9DAcciAM4-54" value="2" style="rounded=0;whiteSpace=wrap;html=1;fillColor=#dae8fc;strokeWidth=1;strokeColor=#6c8ebf;" vertex="1" parent="1">
          <mxGeometry x="395" y="1110" width="31" height="35" as="geometry" />
        </mxCell>
        <mxCell id="gXuYD9Qn4Zd9DAcciAM4-55" value="2" style="rounded=0;whiteSpace=wrap;html=1;fillColor=#dae8fc;strokeWidth=1;strokeColor=#6c8ebf;" vertex="1" parent="1">
          <mxGeometry x="519" y="1110" width="31" height="35" as="geometry" />
        </mxCell>
        <mxCell id="gXuYD9Qn4Zd9DAcciAM4-56" value="2" style="rounded=0;whiteSpace=wrap;html=1;fillColor=#dae8fc;strokeWidth=1;strokeColor=#6c8ebf;" vertex="1" parent="1">
          <mxGeometry x="643" y="1110" width="31" height="35" as="geometry" />
        </mxCell>
        <mxCell id="gXuYD9Qn4Zd9DAcciAM4-58" value="2" style="rounded=0;whiteSpace=wrap;html=1;fillColor=#dae8fc;strokeWidth=1;strokeColor=#6c8ebf;" vertex="1" parent="1">
          <mxGeometry x="711" y="1110" width="26" height="35" as="geometry" />
        </mxCell>
        <mxCell id="gXuYD9Qn4Zd9DAcciAM4-59" value="" style="rounded=0;whiteSpace=wrap;html=1;fillColor=#fff2cc;strokeColor=#d6b656;" vertex="1" parent="1">
          <mxGeometry x="300" y="1150" width="11" height="35" as="geometry" />
        </mxCell>
        <mxCell id="gXuYD9Qn4Zd9DAcciAM4-60" value="3" style="rounded=0;whiteSpace=wrap;html=1;fillColor=#dae8fc;strokeWidth=1;strokeColor=#6c8ebf;" vertex="1" parent="1">
          <mxGeometry x="311" y="1150" width="20" height="35" as="geometry" />
        </mxCell>
        <mxCell id="gXuYD9Qn4Zd9DAcciAM4-61" value="" style="rounded=0;whiteSpace=wrap;html=1;fillColor=#fff2cc;strokeColor=#d6b656;" vertex="1" parent="1">
          <mxGeometry x="700" y="1150" width="11" height="35" as="geometry" />
        </mxCell>
        <mxCell id="gXuYD9Qn4Zd9DAcciAM4-62" value="3" style="rounded=0;whiteSpace=wrap;html=1;fillColor=#dae8fc;strokeWidth=1;strokeColor=#6c8ebf;" vertex="1" parent="1">
          <mxGeometry x="426" y="1150" width="31" height="35" as="geometry" />
        </mxCell>
        <mxCell id="gXuYD9Qn4Zd9DAcciAM4-63" value="3" style="rounded=0;whiteSpace=wrap;html=1;fillColor=#dae8fc;strokeWidth=1;strokeColor=#6c8ebf;" vertex="1" parent="1">
          <mxGeometry x="550" y="1150" width="31" height="35" as="geometry" />
        </mxCell>
        <mxCell id="gXuYD9Qn4Zd9DAcciAM4-66" value="3" style="rounded=0;whiteSpace=wrap;html=1;fillColor=#dae8fc;strokeWidth=1;strokeColor=#6c8ebf;" vertex="1" parent="1">
          <mxGeometry x="674" y="1150" width="26" height="35" as="geometry" />
        </mxCell>
        <mxCell id="gXuYD9Qn4Zd9DAcciAM4-67" value="&lt;font color=&quot;#1a1a1a&quot; face=&quot;Verdana&quot; size=&quot;1&quot; style=&quot;&quot;&gt;&lt;b style=&quot;font-size: 30px;&quot;&gt;CPU0&lt;/b&gt;&lt;/font&gt;" style="rounded=1;whiteSpace=wrap;html=1;fillColor=#d5e8d4;strokeColor=#82b366;" vertex="1" parent="1">
          <mxGeometry x="70" y="1310" width="120" height="70" as="geometry" />
        </mxCell>
        <mxCell id="gXuYD9Qn4Zd9DAcciAM4-84" value="" style="group" vertex="1" connectable="0" parent="1">
          <mxGeometry x="209" y="1000" width="390" height="25" as="geometry" />
        </mxCell>
        <mxCell id="gXuYD9Qn4Zd9DAcciAM4-85" value="" style="rounded=0;whiteSpace=wrap;html=1;fillColor=#fff2cc;strokeColor=#d6b656;" vertex="1" parent="gXuYD9Qn4Zd9DAcciAM4-84">
          <mxGeometry width="10" height="25" as="geometry" />
        </mxCell>
        <mxCell id="gXuYD9Qn4Zd9DAcciAM4-86" value="SendRequest(0)" style="rounded=0;whiteSpace=wrap;html=1;fillColor=#dae8fc;strokeWidth=1;strokeColor=#6c8ebf;" vertex="1" parent="gXuYD9Qn4Zd9DAcciAM4-84">
          <mxGeometry x="10" width="370" height="25" as="geometry" />
        </mxCell>
        <mxCell id="gXuYD9Qn4Zd9DAcciAM4-87" value="" style="rounded=0;whiteSpace=wrap;html=1;fillColor=#fff2cc;strokeColor=#d6b656;" vertex="1" parent="gXuYD9Qn4Zd9DAcciAM4-84">
          <mxGeometry x="380" width="10" height="25" as="geometry" />
        </mxCell>
        <mxCell id="gXuYD9Qn4Zd9DAcciAM4-89" value="" style="group" vertex="1" connectable="0" parent="1">
          <mxGeometry x="240" y="970" width="390" height="25" as="geometry" />
        </mxCell>
        <mxCell id="gXuYD9Qn4Zd9DAcciAM4-90" value="" style="rounded=0;whiteSpace=wrap;html=1;fillColor=#fff2cc;strokeColor=#d6b656;" vertex="1" parent="gXuYD9Qn4Zd9DAcciAM4-89">
          <mxGeometry width="10" height="25" as="geometry" />
        </mxCell>
        <mxCell id="gXuYD9Qn4Zd9DAcciAM4-91" value="SendRequest(1)" style="rounded=0;whiteSpace=wrap;html=1;fillColor=#dae8fc;strokeWidth=1;strokeColor=#6c8ebf;" vertex="1" parent="gXuYD9Qn4Zd9DAcciAM4-89">
          <mxGeometry x="10" width="370" height="25" as="geometry" />
        </mxCell>
        <mxCell id="gXuYD9Qn4Zd9DAcciAM4-92" value="" style="rounded=0;whiteSpace=wrap;html=1;fillColor=#fff2cc;strokeColor=#d6b656;" vertex="1" parent="gXuYD9Qn4Zd9DAcciAM4-89">
          <mxGeometry x="380" width="10" height="25" as="geometry" />
        </mxCell>
        <mxCell id="gXuYD9Qn4Zd9DAcciAM4-93" value="" style="group" vertex="1" connectable="0" parent="1">
          <mxGeometry x="332" y="940" width="390" height="25" as="geometry" />
        </mxCell>
        <mxCell id="gXuYD9Qn4Zd9DAcciAM4-94" value="" style="rounded=0;whiteSpace=wrap;html=1;fillColor=#fff2cc;strokeColor=#d6b656;" vertex="1" parent="gXuYD9Qn4Zd9DAcciAM4-93">
          <mxGeometry width="10" height="25" as="geometry" />
        </mxCell>
        <mxCell id="gXuYD9Qn4Zd9DAcciAM4-95" value="SendRequest(2)" style="rounded=0;whiteSpace=wrap;html=1;fillColor=#dae8fc;strokeWidth=1;strokeColor=#6c8ebf;" vertex="1" parent="gXuYD9Qn4Zd9DAcciAM4-93">
          <mxGeometry x="10" width="370" height="25" as="geometry" />
        </mxCell>
        <mxCell id="gXuYD9Qn4Zd9DAcciAM4-96" value="" style="rounded=0;whiteSpace=wrap;html=1;fillColor=#fff2cc;strokeColor=#d6b656;" vertex="1" parent="gXuYD9Qn4Zd9DAcciAM4-93">
          <mxGeometry x="380" width="10" height="25" as="geometry" />
        </mxCell>
        <mxCell id="gXuYD9Qn4Zd9DAcciAM4-97" value="" style="group" vertex="1" connectable="0" parent="1">
          <mxGeometry x="300" y="910" width="390" height="25" as="geometry" />
        </mxCell>
        <mxCell id="gXuYD9Qn4Zd9DAcciAM4-98" value="" style="rounded=0;whiteSpace=wrap;html=1;fillColor=#fff2cc;strokeColor=#d6b656;" vertex="1" parent="gXuYD9Qn4Zd9DAcciAM4-97">
          <mxGeometry width="10" height="25" as="geometry" />
        </mxCell>
        <mxCell id="gXuYD9Qn4Zd9DAcciAM4-99" value="SendRequest(3)" style="rounded=0;whiteSpace=wrap;html=1;fillColor=#dae8fc;strokeWidth=1;strokeColor=#6c8ebf;" vertex="1" parent="gXuYD9Qn4Zd9DAcciAM4-97">
          <mxGeometry x="10" width="370" height="25" as="geometry" />
        </mxCell>
        <mxCell id="gXuYD9Qn4Zd9DAcciAM4-100" value="" style="rounded=0;whiteSpace=wrap;html=1;fillColor=#fff2cc;strokeColor=#d6b656;" vertex="1" parent="gXuYD9Qn4Zd9DAcciAM4-97">
          <mxGeometry x="380" width="10" height="25" as="geometry" />
        </mxCell>
        <mxCell id="gXuYD9Qn4Zd9DAcciAM4-102" value="" style="endArrow=none;dashed=1;html=1;rounded=0;opacity=50;entryX=0;entryY=1;entryDx=0;entryDy=0;" edge="1" parent="1" target="gXuYD9Qn4Zd9DAcciAM4-98">
          <mxGeometry width="50" height="50" relative="1" as="geometry">
            <mxPoint x="300" y="1150" as="sourcePoint" />
            <mxPoint x="300" y="940" as="targetPoint" />
          </mxGeometry>
        </mxCell>
        <mxCell id="gXuYD9Qn4Zd9DAcciAM4-103" value="" style="endArrow=none;dashed=1;html=1;rounded=0;opacity=50;entryX=0;entryY=1;entryDx=0;entryDy=0;" edge="1" parent="1" target="gXuYD9Qn4Zd9DAcciAM4-90">
          <mxGeometry width="50" height="50" relative="1" as="geometry">
            <mxPoint x="240" y="1070" as="sourcePoint" />
            <mxPoint x="239.43" y="940" as="targetPoint" />
          </mxGeometry>
        </mxCell>
        <mxCell id="gXuYD9Qn4Zd9DAcciAM4-104" value="" style="endArrow=none;dashed=1;html=1;rounded=0;opacity=50;entryX=0;entryY=1;entryDx=0;entryDy=0;exitX=0;exitY=0;exitDx=0;exitDy=0;" edge="1" parent="1" source="gXuYD9Qn4Zd9DAcciAM4-23" target="gXuYD9Qn4Zd9DAcciAM4-85">
          <mxGeometry width="50" height="50" relative="1" as="geometry">
            <mxPoint x="208.76999999999998" y="1085" as="sourcePoint" />
            <mxPoint x="208.76999999999998" y="1010" as="targetPoint" />
          </mxGeometry>
        </mxCell>
        <mxCell id="gXuYD9Qn4Zd9DAcciAM4-105" value="" style="endArrow=none;dashed=1;html=1;rounded=0;opacity=50;entryX=0;entryY=1;entryDx=0;entryDy=0;exitX=0;exitY=0;exitDx=0;exitDy=0;" edge="1" parent="1" source="gXuYD9Qn4Zd9DAcciAM4-51" target="gXuYD9Qn4Zd9DAcciAM4-94">
          <mxGeometry width="50" height="50" relative="1" as="geometry">
            <mxPoint x="331" y="1110" as="sourcePoint" />
            <mxPoint x="331" y="895" as="targetPoint" />
          </mxGeometry>
        </mxCell>
        <mxCell id="gXuYD9Qn4Zd9DAcciAM4-134" value="" style="group" vertex="1" connectable="0" parent="1">
          <mxGeometry x="200" y="1290" width="390" height="20" as="geometry" />
        </mxCell>
        <mxCell id="gXuYD9Qn4Zd9DAcciAM4-135" value="" style="rounded=0;whiteSpace=wrap;html=1;fillColor=#fff2cc;strokeColor=#d6b656;" vertex="1" parent="gXuYD9Qn4Zd9DAcciAM4-134">
          <mxGeometry width="10" height="20" as="geometry" />
        </mxCell>
        <mxCell id="gXuYD9Qn4Zd9DAcciAM4-136" value="SendRequest(0)" style="rounded=0;whiteSpace=wrap;html=1;fillColor=#dae8fc;strokeWidth=1;strokeColor=#6c8ebf;" vertex="1" parent="gXuYD9Qn4Zd9DAcciAM4-134">
          <mxGeometry x="10" width="370" height="20" as="geometry" />
        </mxCell>
        <mxCell id="gXuYD9Qn4Zd9DAcciAM4-137" value="" style="rounded=0;whiteSpace=wrap;html=1;fillColor=#fff2cc;strokeColor=#d6b656;" vertex="1" parent="gXuYD9Qn4Zd9DAcciAM4-134">
          <mxGeometry x="380" width="10" height="20" as="geometry" />
        </mxCell>
        <mxCell id="gXuYD9Qn4Zd9DAcciAM4-107" value="0" style="rounded=0;whiteSpace=wrap;html=1;fillColor=#fff2cc;strokeColor=#d6b656;container=0;" vertex="1" parent="1">
          <mxGeometry x="200" y="1330" width="10" height="30" as="geometry" />
        </mxCell>
        <mxCell id="gXuYD9Qn4Zd9DAcciAM4-109" value="0" style="rounded=0;whiteSpace=wrap;html=1;fillColor=#fff2cc;strokeColor=#d6b656;container=0;" vertex="1" parent="1">
          <mxGeometry x="580" y="1330" width="10" height="30" as="geometry" />
        </mxCell>
        <mxCell id="gXuYD9Qn4Zd9DAcciAM4-123" value="1" style="rounded=0;whiteSpace=wrap;html=1;fillColor=#fff2cc;strokeColor=#d6b656;container=0;" vertex="1" parent="1">
          <mxGeometry x="210" y="1330" width="10" height="30" as="geometry" />
        </mxCell>
        <mxCell id="gXuYD9Qn4Zd9DAcciAM4-125" value="1" style="rounded=0;whiteSpace=wrap;html=1;fillColor=#fff2cc;strokeColor=#d6b656;container=0;" vertex="1" parent="1">
          <mxGeometry x="590" y="1330" width="10" height="30" as="geometry" />
        </mxCell>
        <mxCell id="gXuYD9Qn4Zd9DAcciAM4-127" value="2" style="rounded=0;whiteSpace=wrap;html=1;fillColor=#fff2cc;strokeColor=#d6b656;container=0;" vertex="1" parent="1">
          <mxGeometry x="220" y="1330" width="10" height="30" as="geometry" />
        </mxCell>
        <mxCell id="gXuYD9Qn4Zd9DAcciAM4-129" value="2" style="rounded=0;whiteSpace=wrap;html=1;fillColor=#fff2cc;strokeColor=#d6b656;container=0;" vertex="1" parent="1">
          <mxGeometry x="600" y="1330" width="10" height="30" as="geometry" />
        </mxCell>
        <mxCell id="gXuYD9Qn4Zd9DAcciAM4-131" value="3" style="rounded=0;whiteSpace=wrap;html=1;fillColor=#fff2cc;strokeColor=#d6b656;container=0;" vertex="1" parent="1">
          <mxGeometry x="230" y="1330" width="10" height="30" as="geometry" />
        </mxCell>
        <mxCell id="gXuYD9Qn4Zd9DAcciAM4-133" value="3" style="rounded=0;whiteSpace=wrap;html=1;fillColor=#fff2cc;strokeColor=#d6b656;container=0;" vertex="1" parent="1">
          <mxGeometry x="610" y="1330" width="10" height="30" as="geometry" />
        </mxCell>
        <mxCell id="gXuYD9Qn4Zd9DAcciAM4-139" value="" style="group" vertex="1" connectable="0" parent="1">
          <mxGeometry x="210" y="1266" width="390" height="20" as="geometry" />
        </mxCell>
        <mxCell id="gXuYD9Qn4Zd9DAcciAM4-140" value="" style="rounded=0;whiteSpace=wrap;html=1;fillColor=#fff2cc;strokeColor=#d6b656;" vertex="1" parent="gXuYD9Qn4Zd9DAcciAM4-139">
          <mxGeometry width="10" height="20" as="geometry" />
        </mxCell>
        <mxCell id="gXuYD9Qn4Zd9DAcciAM4-141" value="SendRequest(1)" style="rounded=0;whiteSpace=wrap;html=1;fillColor=#dae8fc;strokeWidth=1;strokeColor=#6c8ebf;" vertex="1" parent="gXuYD9Qn4Zd9DAcciAM4-139">
          <mxGeometry x="10" width="370" height="20" as="geometry" />
        </mxCell>
        <mxCell id="gXuYD9Qn4Zd9DAcciAM4-142" value="" style="rounded=0;whiteSpace=wrap;html=1;fillColor=#fff2cc;strokeColor=#d6b656;" vertex="1" parent="gXuYD9Qn4Zd9DAcciAM4-139">
          <mxGeometry x="380" width="10" height="20" as="geometry" />
        </mxCell>
        <mxCell id="gXuYD9Qn4Zd9DAcciAM4-143" value="" style="group" vertex="1" connectable="0" parent="1">
          <mxGeometry x="220" y="1242" width="390" height="20" as="geometry" />
        </mxCell>
        <mxCell id="gXuYD9Qn4Zd9DAcciAM4-144" value="" style="rounded=0;whiteSpace=wrap;html=1;fillColor=#fff2cc;strokeColor=#d6b656;" vertex="1" parent="gXuYD9Qn4Zd9DAcciAM4-143">
          <mxGeometry width="10" height="20" as="geometry" />
        </mxCell>
        <mxCell id="gXuYD9Qn4Zd9DAcciAM4-145" value="SendRequest(2)" style="rounded=0;whiteSpace=wrap;html=1;fillColor=#dae8fc;strokeWidth=1;strokeColor=#6c8ebf;" vertex="1" parent="gXuYD9Qn4Zd9DAcciAM4-143">
          <mxGeometry x="10" width="370" height="20" as="geometry" />
        </mxCell>
        <mxCell id="gXuYD9Qn4Zd9DAcciAM4-146" value="" style="rounded=0;whiteSpace=wrap;html=1;fillColor=#fff2cc;strokeColor=#d6b656;" vertex="1" parent="gXuYD9Qn4Zd9DAcciAM4-143">
          <mxGeometry x="380" width="10" height="20" as="geometry" />
        </mxCell>
        <mxCell id="gXuYD9Qn4Zd9DAcciAM4-147" value="" style="group" vertex="1" connectable="0" parent="1">
          <mxGeometry x="230" y="1218" width="390" height="20" as="geometry" />
        </mxCell>
        <mxCell id="gXuYD9Qn4Zd9DAcciAM4-148" value="" style="rounded=0;whiteSpace=wrap;html=1;fillColor=#fff2cc;strokeColor=#d6b656;" vertex="1" parent="gXuYD9Qn4Zd9DAcciAM4-147">
          <mxGeometry width="10" height="20" as="geometry" />
        </mxCell>
        <mxCell id="gXuYD9Qn4Zd9DAcciAM4-149" value="SendRequest(3)" style="rounded=0;whiteSpace=wrap;html=1;fillColor=#dae8fc;strokeWidth=1;strokeColor=#6c8ebf;" vertex="1" parent="gXuYD9Qn4Zd9DAcciAM4-147">
          <mxGeometry x="10" width="370" height="20" as="geometry" />
        </mxCell>
        <mxCell id="gXuYD9Qn4Zd9DAcciAM4-150" value="" style="rounded=0;whiteSpace=wrap;html=1;fillColor=#fff2cc;strokeColor=#d6b656;" vertex="1" parent="gXuYD9Qn4Zd9DAcciAM4-147">
          <mxGeometry x="380" width="10" height="20" as="geometry" />
        </mxCell>
        <mxCell id="gXuYD9Qn4Zd9DAcciAM4-151" value="" style="group" vertex="1" connectable="0" parent="1">
          <mxGeometry x="240" y="1070" width="545" height="35" as="geometry" />
        </mxCell>
        <mxCell id="gXuYD9Qn4Zd9DAcciAM4-43" value="" style="rounded=0;whiteSpace=wrap;html=1;fillColor=#fff2cc;strokeColor=#d6b656;" vertex="1" parent="gXuYD9Qn4Zd9DAcciAM4-151">
          <mxGeometry width="11" height="35" as="geometry" />
        </mxCell>
        <mxCell id="gXuYD9Qn4Zd9DAcciAM4-44" value="1" style="rounded=0;whiteSpace=wrap;html=1;fillColor=#dae8fc;strokeWidth=1;strokeColor=#6c8ebf;" vertex="1" parent="gXuYD9Qn4Zd9DAcciAM4-151">
          <mxGeometry x="11" width="20" height="35" as="geometry" />
        </mxCell>
        <mxCell id="gXuYD9Qn4Zd9DAcciAM4-45" value="" style="rounded=0;whiteSpace=wrap;html=1;fillColor=#fff2cc;strokeColor=#d6b656;" vertex="1" parent="gXuYD9Qn4Zd9DAcciAM4-151">
          <mxGeometry x="534" width="11" height="35" as="geometry" />
        </mxCell>
        <mxCell id="gXuYD9Qn4Zd9DAcciAM4-46" value="1" style="rounded=0;whiteSpace=wrap;html=1;fillColor=#dae8fc;strokeWidth=1;strokeColor=#6c8ebf;" vertex="1" parent="gXuYD9Qn4Zd9DAcciAM4-151">
          <mxGeometry x="124" width="31" height="35" as="geometry" />
        </mxCell>
        <mxCell id="gXuYD9Qn4Zd9DAcciAM4-47" value="1" style="rounded=0;whiteSpace=wrap;html=1;fillColor=#dae8fc;strokeWidth=1;strokeColor=#6c8ebf;" vertex="1" parent="gXuYD9Qn4Zd9DAcciAM4-151">
          <mxGeometry x="217" width="31" height="35" as="geometry" />
        </mxCell>
        <mxCell id="gXuYD9Qn4Zd9DAcciAM4-48" value="1" style="rounded=0;whiteSpace=wrap;html=1;fillColor=#dae8fc;strokeWidth=1;strokeColor=#6c8ebf;" vertex="1" parent="gXuYD9Qn4Zd9DAcciAM4-151">
          <mxGeometry x="341" width="31" height="35" as="geometry" />
        </mxCell>
        <mxCell id="gXuYD9Qn4Zd9DAcciAM4-50" value="1" style="rounded=0;whiteSpace=wrap;html=1;fillColor=#dae8fc;strokeWidth=1;strokeColor=#6c8ebf;" vertex="1" parent="gXuYD9Qn4Zd9DAcciAM4-151">
          <mxGeometry x="508" width="26" height="35" as="geometry" />
        </mxCell>
        <mxCell id="gXuYD9Qn4Zd9DAcciAM4-153" value="" style="endArrow=none;dashed=1;html=1;rounded=0;" edge="1" parent="1">
          <mxGeometry width="50" height="50" relative="1" as="geometry">
            <mxPoint x="785" y="1360" as="sourcePoint" />
            <mxPoint x="785" y="1250" as="targetPoint" />
          </mxGeometry>
        </mxCell>
        <mxCell id="gXuYD9Qn4Zd9DAcciAM4-154" value="Parallel tasks&lt;br&gt;completed here" style="edgeLabel;html=1;align=center;verticalAlign=middle;resizable=0;points=[];" vertex="1" connectable="0" parent="gXuYD9Qn4Zd9DAcciAM4-153">
          <mxGeometry x="-0.6364" relative="1" as="geometry">
            <mxPoint x="-61" y="-40" as="offset" />
          </mxGeometry>
        </mxCell>
        <mxCell id="gXuYD9Qn4Zd9DAcciAM4-156" value="" style="endArrow=classic;html=1;rounded=0;" edge="1" parent="1">
          <mxGeometry width="50" height="50" relative="1" as="geometry">
            <mxPoint x="760" y="1310" as="sourcePoint" />
            <mxPoint x="780" y="1320" as="targetPoint" />
          </mxGeometry>
        </mxCell>
      </root>
    </mxGraphModel>
  </diagram>
</mxfile>
